<svg xmlns="http://www.w3.org/2000/svg" xmlns:xlink="http://www.w3.org/1999/xlink" width="40" zoomAndPan="magnify" viewBox="0 0 30 37.92" height="40" preserveAspectRatio="xMidYMid meet" version="1.2"><defs><clipPath id="4eef913c09"><path d="M 0.03125 0 L 29.910156 0 L 29.910156 29.9375 L 0.03125 29.9375 Z M 0.03125 0 "/></clipPath></defs><g id="860ff2ae0e"><g clip-rule="nonzero" clip-path="url(#4eef913c09)"><path style=" stroke:none;fill-rule:nonzero;fill:#1db954;fill-opacity:1;" d="M 14.945312 0.0117188 C 6.675781 0.0117188 -0.0234375 6.683594 -0.0234375 14.914062 C -0.0234375 23.140625 6.675781 29.8125 14.945312 29.8125 C 23.210938 29.8125 29.910156 23.140625 29.910156 14.914062 C 29.910156 6.683594 23.210938 0.0117188 14.945312 0.0117188 Z M 21.808594 21.519531 C 21.625 21.78125 21.339844 21.917969 21.046875 21.917969 C 20.859375 21.917969 20.671875 21.863281 20.507812 21.75 C 17 19.292969 11.164062 19.15625 7.222656 20.070312 C 6.722656 20.1875 6.21875 19.875 6.101562 19.375 C 5.984375 18.875 6.296875 18.375 6.800781 18.257812 C 11.132812 17.257812 17.605469 17.441406 21.582031 20.226562 C 22.007812 20.519531 22.105469 21.101562 21.808594 21.519531 Z M 23.632812 17.886719 C 23.453125 18.140625 23.167969 18.273438 22.875 18.273438 C 22.683594 18.273438 22.496094 18.21875 22.328125 18.097656 C 18.261719 15.191406 13.261719 14.46875 6.589844 15.824219 C 6.085938 15.925781 5.589844 15.605469 5.484375 15.097656 C 5.378906 14.597656 5.707031 14.101562 6.214844 14 C 13.429688 12.535156 18.898438 13.355469 23.421875 16.585938 C 23.839844 16.886719 23.9375 17.46875 23.632812 17.886719 Z M 25.484375 13.007812 C 25.300781 13.273438 25.003906 13.414062 24.707031 13.414062 C 24.527344 13.414062 24.34375 13.363281 24.179688 13.253906 C 19.023438 9.769531 11.179688 9.753906 6.105469 11.542969 C 5.617188 11.710938 5.082031 11.457031 4.910156 10.972656 C 4.738281 10.488281 4.992188 9.953125 5.480469 9.785156 C 11.003906 7.839844 19.558594 7.882812 25.234375 11.714844 C 25.664062 12.003906 25.769531 12.582031 25.484375 13.007812 Z M 25.484375 13.007812 "/></g></g></svg>