<svg xmlns="http://www.w3.org/2000/svg" xmlns:xlink="http://www.w3.org/1999/xlink" width="40" zoomAndPan="magnify" viewBox="0 0 30 37.92" height="40" preserveAspectRatio="xMidYMid meet" version="1.2"><defs><clipPath id="a893954725"><path d="M 0.03125 0 L 29.96875 0 L 29.96875 29.9375 L 0.03125 29.9375 Z M 0.03125 0 "/></clipPath></defs><g id="fd1b9b947c"><g clip-rule="nonzero" clip-path="url(#a893954725)"><path style=" stroke:none;fill-rule:nonzero;fill:#1db954;fill-opacity:1;" d="M 15 0.0117188 C 6.734375 0.0117188 0.03125 6.683594 0.03125 14.914062 C 0.03125 23.140625 6.734375 29.8125 15 29.8125 C 23.265625 29.8125 29.96875 23.140625 29.96875 14.914062 C 29.96875 6.683594 23.265625 0.0117188 15 0.0117188 Z M 21.867188 21.519531 C 21.683594 21.78125 21.394531 21.917969 21.101562 21.917969 C 20.914062 21.917969 20.726562 21.863281 20.5625 21.75 C 17.054688 19.292969 11.222656 19.15625 7.28125 20.070312 C 6.78125 20.1875 6.273438 19.875 6.15625 19.375 C 6.042969 18.875 6.351562 18.375 6.855469 18.257812 C 11.1875 17.257812 17.664062 17.441406 21.636719 20.226562 C 22.0625 20.519531 22.164062 21.101562 21.867188 21.519531 Z M 23.691406 17.886719 C 23.507812 18.140625 23.222656 18.273438 22.929688 18.273438 C 22.742188 18.273438 22.550781 18.21875 22.386719 18.097656 C 18.316406 15.191406 13.316406 14.46875 6.644531 15.824219 C 6.144531 15.925781 5.644531 15.605469 5.542969 15.097656 C 5.4375 14.597656 5.765625 14.101562 6.269531 14 C 13.484375 12.535156 18.953125 13.355469 23.476562 16.585938 C 23.898438 16.886719 23.992188 17.46875 23.691406 17.886719 Z M 25.539062 13.007812 C 25.355469 13.273438 25.0625 13.414062 24.761719 13.414062 C 24.582031 13.414062 24.398438 13.363281 24.238281 13.253906 C 19.078125 9.769531 11.238281 9.753906 6.160156 11.542969 C 5.675781 11.710938 5.140625 11.457031 4.96875 10.972656 C 4.796875 10.488281 5.050781 9.953125 5.539062 9.785156 C 11.058594 7.839844 19.617188 7.882812 25.289062 11.714844 C 25.71875 12.003906 25.828125 12.582031 25.539062 13.007812 Z M 25.539062 13.007812 "/></g></g></svg>